<svg width="23" height="11" viewBox="0 0 23 11" fill="none" xmlns="http://www.w3.org/2000/svg">
<path d="M0.00044392 10.1816V-0.00017786H1.48695V3.7832H1.57644C1.66261 3.62411 1.7869 3.44016 1.94931 3.23136C2.11171 3.02255 2.33709 2.84026 2.62544 2.68448C2.9138 2.52539 3.29495 2.44585 3.76891 2.44585C4.38539 2.44585 4.93558 2.60162 5.41948 2.91317C5.90338 3.22473 6.28288 3.67383 6.55797 4.26048C6.83638 4.84712 6.97559 5.55309 6.97559 6.37837C6.97559 7.20366 6.83804 7.91128 6.56294 8.50124C6.28785 9.08789 5.91001 9.54031 5.42942 9.85849C4.94883 10.1734 4.4003 10.3308 3.78382 10.3308C3.31981 10.3308 2.94031 10.2529 2.64533 10.0971C2.35366 9.94135 2.12497 9.75906 1.95925 9.55025C1.79353 9.34144 1.66593 9.15584 1.57644 8.99343H1.45215V10.1816H0.00044392ZM1.45712 6.36346C1.45712 6.90039 1.53501 7.37103 1.69078 7.77539C1.84656 8.17975 2.07194 8.49627 2.36692 8.72496C2.6619 8.95034 3.02317 9.06303 3.45073 9.06303C3.89486 9.06303 4.26607 8.94537 4.56436 8.71005C4.86266 8.47141 5.08804 8.14826 5.2405 7.74059C5.39628 7.33292 5.47417 6.87388 5.47417 6.36346C5.47417 5.85967 5.39793 5.40726 5.24547 5.00621C5.09632 4.60517 4.87095 4.28865 4.56934 4.05664C4.27104 3.82463 3.89817 3.70863 3.45073 3.70863C3.01986 3.70863 2.65527 3.81966 2.35698 4.04173C2.062 4.26379 1.83828 4.57369 1.68581 4.97141C1.53335 5.36914 1.45712 5.83316 1.45712 6.36346ZM11.8614 10.3358C11.1455 10.3358 10.5207 10.1717 9.98713 9.84357C9.45351 9.51545 9.03921 9.0564 8.74423 8.46644C8.44925 7.87648 8.30176 7.18709 8.30176 6.39826C8.30176 5.60612 8.44925 4.91341 8.74423 4.32013C9.03921 3.72686 9.45351 3.26616 9.98713 2.93803C10.5207 2.60991 11.1455 2.44585 11.8614 2.44585C12.5773 2.44585 13.2021 2.60991 13.7357 2.93803C14.2693 3.26616 14.6836 3.72686 14.9786 4.32013C15.2736 4.91341 15.4211 5.60612 15.4211 6.39826C15.4211 7.18709 15.2736 7.87648 14.9786 8.46644C14.6836 9.0564 14.2693 9.51545 13.7357 9.84357C13.2021 10.1717 12.5773 10.3358 11.8614 10.3358ZM11.8664 9.08789C12.3304 9.08789 12.7149 8.96526 13.0198 8.71999C13.3247 8.47473 13.5501 8.14826 13.6959 7.74059C13.8451 7.33292 13.9197 6.88382 13.9197 6.39329C13.9197 5.90607 13.8451 5.45863 13.6959 5.05096C13.5501 4.63997 13.3247 4.31019 13.0198 4.06161C12.7149 3.81303 12.3304 3.68874 11.8664 3.68874C11.3991 3.68874 11.0113 3.81303 10.703 4.06161C10.3981 4.31019 10.1711 4.63997 10.0219 5.05096C9.8761 5.45863 9.80318 5.90607 9.80318 6.39329C9.80318 6.88382 9.8761 7.33292 10.0219 7.74059C10.1711 8.14826 10.3981 8.47473 10.703 8.71999C11.0113 8.96526 11.3991 9.08789 11.8664 9.08789ZM17.9529 2.54528L19.6382 5.51829L21.3385 2.54528H22.9642L20.5828 6.36346L22.9841 10.1816H21.3584L19.6382 7.32795L17.923 10.1816H16.2923L18.6688 6.36346L16.3222 2.54528H17.9529Z" fill="#181D27"/>
</svg>
