<svg width="21" height="21" viewBox="0 0 21 21" fill="none" xmlns="http://www.w3.org/2000/svg">
<path d="M20.1577 9.12687V16.7119C20.1577 17.3531 19.8096 17.7196 19.2966 17.7196C19.0951 17.7196 18.8569 17.6554 18.605 17.5226V9.93759C18.605 9.03985 17.9133 7.94515 17.0522 7.50086L4.65332 1.00139C4.65332 0.103644 5.34495 -0.253621 6.20605 0.19067L18.605 6.69014C19.4661 7.13443 20.1577 8.22913 20.1577 9.12687Z" fill="white" fill-opacity="0.2"/>
<path d="M18.6053 9.93742V17.5224C18.6053 18.1637 18.2572 18.5301 17.7442 18.5301C17.5426 18.5301 17.3045 18.466 17.0525 18.3331V10.7481C17.0525 9.85039 16.3609 8.7557 15.4998 8.31141L3.10547 1.81193C3.10547 0.914191 3.7971 0.556926 4.6582 1.00122L17.0571 7.50069C17.9182 7.94498 18.6099 9.03968 18.6099 9.93742H18.6053Z" fill="white" fill-opacity="0.5"/>
<path d="M17.0571 10.7528V18.3378C17.0571 18.979 16.709 19.3455 16.196 19.3455C15.9945 19.3455 15.7563 19.2813 15.5044 19.1485V11.5635C15.5044 10.6658 14.8128 9.57106 13.9517 9.12677L1.55273 2.6273C1.55273 1.98605 1.90084 1.61963 2.41383 1.61963C2.62911 1.61963 2.85354 1.68375 3.10546 1.81658L15.5044 8.31606C16.3655 8.76035 17.0571 9.85504 17.0571 10.7528Z" fill="white" fill-opacity="0.7"/>
<path d="M13.9515 9.12692L8.85816 11.8156C8.76197 11.8568 8.65663 11.8934 8.5467 11.9026H8.40471C7.81842 11.8705 7.1268 11.4033 6.65045 10.6567L1.55713 2.62744L13.9561 9.12692H13.9515Z" fill="white" fill-opacity="0.2"/>
<path d="M15.5044 11.5633V19.1483C15.5044 20.0461 14.8127 20.4033 13.9517 19.9591L1.55273 13.4596C0.691628 13.0153 0 11.9206 0 11.0229V3.43785C0 2.7966 0.348103 2.43018 0.861099 2.43018C1.07637 2.43018 1.30081 2.4943 1.55273 2.62713L6.64604 10.6564C7.1224 11.403 7.81402 11.8702 8.40031 11.9023H8.54229C8.64764 11.8931 8.75757 11.8611 8.85376 11.8152L13.9471 9.1266C14.8082 9.57089 15.4998 10.6656 15.4998 11.5633H15.5044Z" fill="white"/>
</svg>
